<?xml version="1.0" standalone="no"?>
<!DOCTYPE svg PUBLIC "-//W3C//DTD SVG 20010904//EN"
 "http://www.w3.org/TR/2001/REC-SVG-20010904/DTD/svg10.dtd">
<svg version="1.0" xmlns="http://www.w3.org/2000/svg"
 width="100.000000pt" height="100.000000pt" viewBox="0 0 100.000000 100.000000"
 preserveAspectRatio="xMidYMid meet">
<metadata>
Created by potrace 1.14, written by Peter Selinger 2001-2017
</metadata>
<g transform="translate(0.000000,100.000000) scale(0.100000,-0.100000)"
fill="#000000" stroke="none">
<path d="M627 655 c-42 -14 -81 -42 -183 -131 -89 -77 -113 -91 -125 -73 -11
19 -29 103 -29 140 0 45 -17 69 -48 69 -48 0 -56 -13 -54 -81 6 -157 52 -238
135 -239 52 0 104 29 195 108 86 75 135 112 150 112 14 0 29 -52 38 -125 9
-78 18 -95 53 -95 46 0 55 20 48 110 -11 164 -78 241 -180 205z"/>
</g>
</svg>
